<svg width="100" height="38" viewBox="0 0 100 38" fill="none" xmlns="http://www.w3.org/2000/svg">
<path d="M0.75 7C0.75 3.54822 3.54822 0.75 7 0.75H90.5825C94.7716 0.75 97.7747 4.79028 96.5672 8.80157L89.3425 32.8016C88.5476 35.4424 86.1157 37.25 83.3578 37.25H7.00001C3.54823 37.25 0.75 34.4518 0.75 31V7Z" fill="#445900" stroke="#445900" stroke-width="1.5"/>
<path d="M37.4588 20.4248V26.1248H35.5288V20.4248L30.2788 11.7948H31.9788C32.1521 11.7948 32.2888 11.8381 32.3888 11.9248C32.4888 12.0114 32.5754 12.1181 32.6488 12.2448L35.9288 17.8148C36.0621 18.0481 36.1721 18.2681 36.2588 18.4748C36.3521 18.6814 36.4354 18.8848 36.5088 19.0848C36.5821 18.8781 36.6621 18.6714 36.7488 18.4648C36.8354 18.2581 36.9454 18.0414 37.0788 17.8148L40.3488 12.2448C40.4088 12.1381 40.4888 12.0381 40.5888 11.9448C40.6954 11.8448 40.8321 11.7948 40.9988 11.7948H42.7188L37.4588 20.4248ZM53.3469 11.7948V13.3748H46.4669V18.1348H52.0369V19.6548H46.4669V24.5448H53.3469V26.1248H44.5169V11.7948H53.3469ZM63.478 14.0348C63.418 14.1348 63.3547 14.2114 63.288 14.2648C63.2213 14.3114 63.1347 14.3348 63.028 14.3348C62.9147 14.3348 62.7813 14.2781 62.628 14.1648C62.4813 14.0514 62.2913 13.9281 62.058 13.7948C61.8313 13.6548 61.5547 13.5281 61.228 13.4148C60.908 13.3014 60.518 13.2448 60.058 13.2448C59.6247 13.2448 59.2413 13.3048 58.908 13.4248C58.5747 13.5381 58.2947 13.6948 58.068 13.8948C57.848 14.0948 57.6813 14.3314 57.568 14.6048C57.4547 14.8714 57.398 15.1614 57.398 15.4748C57.398 15.8748 57.4947 16.2081 57.688 16.4748C57.888 16.7348 58.148 16.9581 58.468 17.1448C58.7947 17.3314 59.1613 17.4948 59.568 17.6348C59.9813 17.7681 60.4013 17.9081 60.828 18.0548C61.2613 18.2014 61.6813 18.3681 62.088 18.5548C62.5013 18.7348 62.868 18.9648 63.188 19.2448C63.5147 19.5248 63.7747 19.8681 63.968 20.2748C64.168 20.6814 64.268 21.1814 64.268 21.7748C64.268 22.4014 64.1613 22.9914 63.948 23.5448C63.7347 24.0914 63.4213 24.5681 63.008 24.9748C62.6013 25.3814 62.098 25.7014 61.498 25.9348C60.9047 26.1681 60.228 26.2848 59.468 26.2848C58.5413 26.2848 57.6947 26.1181 56.928 25.7848C56.168 25.4448 55.518 24.9881 54.978 24.4148L55.538 23.4948C55.5913 23.4214 55.6547 23.3614 55.728 23.3148C55.808 23.2614 55.8947 23.2348 55.988 23.2348C56.128 23.2348 56.288 23.3114 56.468 23.4648C56.648 23.6114 56.8713 23.7748 57.138 23.9548C57.4113 24.1348 57.738 24.3014 58.118 24.4548C58.5047 24.6014 58.9747 24.6748 59.528 24.6748C59.988 24.6748 60.398 24.6114 60.758 24.4848C61.118 24.3581 61.4213 24.1814 61.668 23.9548C61.9213 23.7214 62.1147 23.4448 62.248 23.1248C62.3813 22.8048 62.448 22.4481 62.448 22.0548C62.448 21.6214 62.348 21.2681 62.148 20.9948C61.9547 20.7148 61.698 20.4814 61.378 20.2948C61.058 20.1081 60.6913 19.9514 60.278 19.8248C59.8713 19.6914 59.4513 19.5581 59.018 19.4248C58.5913 19.2848 58.1713 19.1248 57.758 18.9448C57.3513 18.7648 56.988 18.5314 56.668 18.2448C56.348 17.9581 56.088 17.6014 55.888 17.1748C55.6947 16.7414 55.598 16.2081 55.598 15.5748C55.598 15.0681 55.6947 14.5781 55.888 14.1048C56.088 13.6314 56.3747 13.2114 56.748 12.8448C57.1213 12.4781 57.5813 12.1848 58.128 11.9648C58.6813 11.7448 59.3147 11.6348 60.028 11.6348C60.828 11.6348 61.558 11.7614 62.218 12.0148C62.878 12.2681 63.4547 12.6348 63.948 13.1148L63.478 14.0348Z" fill="white"/>
</svg>
